<?xml version="1.0" standalone="no"?>
<!DOCTYPE svg PUBLIC "-//W3C//DTD SVG 20010904//EN"
 "http://www.w3.org/TR/2001/REC-SVG-20010904/DTD/svg10.dtd">
<svg version="1.0" xmlns="http://www.w3.org/2000/svg"
 width="1386.000000pt" height="1386.000000pt" viewBox="0 0 1386.000000 1386.000000"
 preserveAspectRatio="xMidYMid meet">
<metadata>
Created by potrace 1.14, written by Peter Selinger 2001-2017
</metadata>
<g transform="translate(0.000000,1386.000000) scale(0.100000,-0.100000)"
fill="#000000" stroke="none">
<path d="M2225 9060 l2120 -2120 -2120 -2120 -2120 -2120 1060 0 1060 0 2120
2120 2120 2120 -2120 2120 -2120 2120 -1060 0 -1060 0 2120 -2120z"/>
<path d="M5935 9060 l2120 -2120 -2120 -2120 -2120 -2120 1060 0 1060 0 2120
2120 2120 2120 -2120 2120 -2120 2120 -1060 0 -1060 0 2120 -2120z"/>
<path d="M9645 9060 l2120 -2120 -2120 -2120 -2120 -2120 1060 0 1060 0 2108
2108 c1679 1679 2107 2112 2107 2132 0 20 -428 453 -2108 2133 l-2107 2107
-1060 0 -1060 0 2120 -2120z"/>
</g>
</svg>
